<?xml version="1.0" encoding="UTF-8"?>
<svg id="Layer_2" data-name="Layer 2" xmlns="http://www.w3.org/2000/svg" viewBox="0 0 7.74 7.74">
  <defs>
    <style>
      .cls-1 {
        fill: #f2f2f2;
      }
    </style>
  </defs>
  <g id="Layer_1-2" data-name="Layer 1">
    <g>
      <path class="cls-1" d="M3.96,3.6v-1.5s-.04-.09-.09-.09-.09.04-.09.09v1.5c-.12.03-.2.14-.2.27,0,.04.01.09.03.12l-.57.55s-.03.04-.03.06.01.05.02.07c.02.01.05.02.07.02.03,0,.05,0,.06-.02l.57-.55h0s.08.04.13.04c.16,0,.29-.13.29-.29,0-.13-.08-.24-.2-.27ZM3.87,3.98c-.06,0-.11-.05-.11-.11s.05-.11.11-.11.11.05.11.11-.05.11-.11.11Z"/>
      <path class="cls-1" d="M6.86,0H2.35C1.05,0,0,1.05,0,2.35v4.51c0,.49.39.88.88.88h4.51c1.3,0,2.35-1.05,2.35-2.34V.88c0-.48-.4-.88-.88-.88ZM3.87,6.18c-1.27,0-2.3-1.04-2.3-2.31S2.6,1.57,3.87,1.57s2.3,1.03,2.3,2.3-1.03,2.31-2.3,2.31Z"/>
    </g>
  </g>
</svg>