<?xml version="1.0" encoding="UTF-8"?>
<svg id="Layer_2" data-name="Layer 2" xmlns="http://www.w3.org/2000/svg" viewBox="0 0 7.8 7.8">
  <defs>
    <style>
      .cls-1 {
        fill: #e9e9ea;
      }
    </style>
  </defs>
  <g id="Layer_1-2" data-name="Layer 1">
    <g>
      <path class="cls-1" d="M6.91,0H2.27C1.01,0,0,1.02,0,2.27v4.64c0,.49.4.89.89.89h4.64c1.25,0,2.27-1.02,2.27-2.27V.89c0-.49-.4-.89-.89-.89ZM5.35,3.57l-1.36,2.9s-.05.06-.09.06-.07-.02-.09-.06l-1.36-2.9c-.23-.5-.19-1.08.09-1.54.28-.46.74-.74,1.27-.77h.18c.53.03.99.31,1.27.77.28.46.32,1.04.09,1.54Z"/>
      <path class="cls-1" d="M4.64,2.87c0,.41-.33.74-.74.74s-.74-.33-.74-.74.33-.75.74-.75.74.34.74.75Z"/>
    </g>
  </g>
</svg>